<svg xmlns="http://www.w3.org/2000/svg" viewBox="0 0 857.89331 315.53333" height="315.533" width="857.893"><g fill="#de1a33"><path d="M135.09 114.247l8.29-1.042c5.285-.657 7.74-1.646 9.237-5.958 6.868-31.402-13.884-46.643-39.536-43.42-32.8 4.106-62.39 31.844-68.788 62.828-12.13 58.147 61.9 74.6 55.042 121.102C96.71 265.92 78.9 289.09 53.256 292.3c-20.363 2.555-29.417-11.4-26.32-27.237 1.69-6.392-.482-7.83-5.38-7.215l-11.694 1.47c-6.79.846-8.01 5.46-8.947 10.375-5.45 28.823 13.888 49.395 46.32 45.327 38.85-4.875 72.297-40.29 76.997-71.76 8.262-57.305-61.435-75-55.612-117.585 2.91-21.988 21.474-37.004 38.444-39.14 16.6-2.078 24.428 8.26 21.796 23.686-.744 4.212 1.323 4.65 6.23 4.027M241.985 120.62l-10.3 1.288c-5.512.69-7.816 2.655-9.188 7.845l-42.854 160.99c-1.372 5.19.002 6.694 5.518 6.004l10.3-1.298c5.516-.687 7.807-2.647 9.183-7.836l42.857-161c1.377-5.19-.004-6.687-5.515-5.993M248.115 78.697c-7.723.97-15.99 8.03-17.918 15.298-2.017 7.61 3.046 12.67 10.766 11.698 8.088-1.024 15.902-7.686 17.913-15.296 1.928-7.268-2.672-12.716-10.76-11.7M407.807 98.493c-9.56 1.198-27.76 5.483-44.02 23.92-4.788-12.78-16.832-16.958-32.46-14.334-10.39 1.64-22.426 6.825-33.355 18.565l1.736-6.576c1.38-5.19 0-6.682-5.52-6l-10.292 1.29c-5.516.7-7.808 2.65-9.188 7.85l-42.856 160.997c-1.373 5.19.007 6.684 5.52 5.995l10.3-1.293c5.512-.686 7.81-2.665 9.19-7.845l30.557-114.626c6.236-23.53 21.49-34.133 34.363-35.752 13.6-1.697 23.256 6.116 17.212 28.95L308.692 274.18c-1.375 5.19 0 6.697 5.52 5.995l10.3-1.29c5.51-.678 7.807-2.646 9.183-7.83L363.9 156.847c6.233-23.524 21.488-34.13 34.36-35.747 13.605-1.708 23.26 6.12 17.21 28.957l-30.635 115.016c-1.375 5.194.004 6.69 5.522 5.998l10.292-1.277c5.513-.697 7.81-2.66 9.186-7.854l28.892-108.444c12.195-46.025-4.82-58.28-30.92-55.003M203.828 64.147l-10.304 1.296c-5.512.688-7.808 2.65-9.184 7.837l-43.063 162.26-16.254 62.86c-1.375 5.184 0 6.688 5.518 5.99l10.296-1.285c5.52-.693 7.81-2.656 9.188-7.846l13.41-52.127L209.34 70.15c1.38-5.19-.004-6.698-5.512-6.003M542.817 106.832l8.276-17.067c2.663-5.297 1.695-6.837-3.882-6.136l-28.75 2.65c-2.943.372-2.703-.84-2.01-3.62 2.646-10.635 3.055-10.653 5.205-19.2 2.158-8.556 10.218-24.205 25.232-25.01 1.454-.077 31.126-4.218 32.266-4.397 4.396-.697 5.715-2.577 7.37-6.146l8.132-21.692c1.738-4.17-1.635-6.446-4.6-6.194-1.098.097-54.22 7.184-55.923 7.38-20.183 2.307-38.304 18.653-45.813 46.532-.747 2.773-18.412 70.088-19.144 72.853l-34.487 130.12c-1.37 5.186.01 6.68 5.526 6l22.053-2.772c5.52-.692 7.813-2.65 9.19-7.842l34.484-130.114c.74-2.763 1.653-3.55 4.596-3.92l20.892-2.848c5.57-.688 8.723-3.273 11.385-8.576M597.284 186.81c-4.216 14.58-13.012 25.754-27.983 29.994-18.715 5.294-17.183-7.36-16.6-10.87 3.912-23.393 29.437-34.41 51.373-44.75zm27.693 29.647l25.768-97.237c8.803-33.22-11.614-50.06-39.19-46.604-30.148 3.78-59.92 30.265-66.428 58.84-1.01 5.145.006 6.697 5.517 6l20.595-2.58c5.88-.735 8.176-2.697 9.184-7.843 2.752-13.053 13.503-21.425 22.693-22.58 9.924-1.248 14.53 5.535 12.418 13.49-2.196 8.31-9.09 14.192-21.13 19.385-24.078 10.373-58.46 20.83-72.272 57.04-16.11 42.235 6.066 58.646 32.538 55.325 18.753-2.344 33.638-15.586 33.638-15.586-1.376 9.202.188 10.014 5.336 9.358l20.59-2.57c5.51-.692 8.915-2.8 9.185-7.848-.003-4.008-.005-9.364 1.557-16.59M726.655 57.544c-30.672 4.223-55.304 23.064-60.086 52.368-7.117 43.648 53.71 41.436 43.986 72.763-3.12 10.432-13.963 17.816-22.05 18.822-8.455 1.06-16-4.01-13.25-14.395 1.38-5.197-.007-6.694-5.515-6.002l-21.333 2.676c-5.507.69-7.808 2.657-9.18 7.838-5.416 20.426 6.674 44.698 40.844 41.722 37.963-3.3 59.383-25.803 65.333-52.02 11.048-48.755-51.79-51.384-44.643-77.033 2.02-7.614 9.92-14.634 18.013-15.636 8.46-1.067 13.058 4.382 10.763 13.032-1.832 6.915 0 8.03 5.153 7.38l19.123-2.395c5.512-.692 7.806-2.65 9.184-7.842 6.882-25.952-9.87-44.922-36.342-41.28M846.312 43.877l-17.245 1.835c-2.943.37-3.494-.236-2.762-3.005l6.918-26.026c1.377-5.19-.002-6.69-5.515-6l-22.057 2.763c-5.522.693-7.815 2.654-9.19 7.85l-7.064 26.644c-.736 2.77-9.723 36.675-10.457 39.444l-17.977 67.828c-13.848 52.248-3.638 67.37 38.286 62.11 5.513-.687 7.81-2.65 9.18-7.837l4.96-18.692c1.377-5.188-.102-6.343-5.52-5.988-19.77 2.133-15.915-12.4-10.317-33.503l19.012-70.54c.735-2.766 1.655-3.546 4.59-3.912l9.196-1.157c5.578-.695 8.315-2.7 10.974-7.99l8.87-17.678c2.662-5.31 1.695-6.847-3.882-6.143"/><path d="M849.48 24.55c.9.018 1.435-.15 1.456-1.165.02-.945-1.02-1.034-1.78-1.05l-1.41-.03-.043 2.207zm-1.888 5.365l-2.01-.043.19-9.163 3.508.073c2.424.05 3.84.756 3.8 2.85-.036 1.688-1.064 2.275-2.313 2.34l2.32 4.058-2.38-.05-2.088-3.895-.948-.02zm1.68-11.07c-3.463-.073-6.308 2.482-6.388 6.4-.08 3.894 2.637 6.587 6.08 6.66h.044v.023c3.368.07 6.287-2.504 6.365-6.42.08-3.92-2.73-6.592-6.1-6.663zm-.304 15.042c-4.64-.1-8.71-3.315-8.6-8.696.108-5.38 4.305-8.425 8.945-8.327 4.618.097 8.686 3.314 8.576 8.697-.11 5.38-4.306 8.423-8.922 8.327"/></g></svg>